<svg id="visual" viewBox="0 0 900 600" width="900" height="600" xmlns="http://www.w3.org/2000/svg" xmlns:xlink="http://www.w3.org/1999/xlink" version="1.1"><rect x="0" y="0" width="900" height="600" fill="#0d0d0e"></rect><g transform="translate(367.20142230143244 292.13996633863934)"><path d="M98 -135.4C155 -136.8 248.6 -167.2 312.6 -149.4C376.7 -131.7 411.4 -65.8 419.3 4.6C427.2 75 408.5 150 346.1 170.8C283.8 191.6 177.9 158.1 113 190.6C48 223.1 24 321.6 2.6 317C-18.8 312.5 -37.5 205 -93.8 167.5C-150.1 130 -243.9 162.5 -254.4 146.2C-264.8 130 -191.9 65 -173.3 10.8C-154.7 -43.5 -190.4 -87 -206.2 -148.8C-222 -210.6 -218 -290.6 -180.3 -300.4C-142.7 -310.1 -71.3 -249.6 -25.4 -205.5C20.5 -161.5 41 -134 98 -135.4" fill="#8457eb"></path></g></svg>