<svg id="visual" viewBox="0 0 900 600" width="900" height="600" xmlns="http://www.w3.org/2000/svg" xmlns:xlink="http://www.w3.org/1999/xlink" version="1.1"><rect x="0" y="0" width="900" height="600" fill="#0d0d0e"></rect><g transform="translate(427.72933521581604 333.1304409229511)"><path d="M138.7 -263.3C173.8 -220.1 192.1 -170.8 234.4 -125.9C276.6 -81 342.8 -40.5 367.1 14C391.3 68.5 373.6 137 333.4 185.4C293.1 233.7 230.3 261.9 171 258.7C111.7 255.4 55.8 220.7 15.6 193.7C-24.7 166.7 -49.3 147.4 -114.3 153.9C-179.2 160.4 -284.5 192.7 -319.1 171.4C-353.8 150 -317.9 75 -296.4 12.4C-274.9 -50.2 -267.8 -100.3 -230.2 -116.6C-192.5 -132.8 -124.4 -115.1 -80.9 -153.5C-37.5 -192 -18.8 -286.5 16.5 -315.1C51.8 -343.8 103.7 -306.6 138.7 -263.3" fill="#8457eb"></path></g></svg>