<svg id="visual" viewBox="0 0 900 600" width="900" height="600" xmlns="http://www.w3.org/2000/svg" xmlns:xlink="http://www.w3.org/1999/xlink" version="1.1"><rect x="0" y="0" width="900" height="600" fill="#0d0d0e"></rect><g transform="translate(401.7848893766766 348.8029144527073)"><path d="M79.6 -167.1C111.5 -119.4 151.4 -114.9 175.5 -94.3C199.6 -73.7 207.8 -36.8 240.9 19.1C273.9 75 331.8 150 313.7 181C295.6 212.1 201.6 199.1 136.6 206.6C71.7 214.1 35.8 242.1 8.5 227.3C-18.8 212.5 -37.5 155 -74.5 131.3C-111.4 107.6 -166.6 117.8 -194.5 101.6C-222.5 85.3 -223.2 42.7 -218.5 2.8C-213.7 -37.2 -203.4 -74.3 -189.1 -114.2C-174.7 -154 -156.4 -196.5 -124.2 -244.1C-92 -291.7 -46 -344.3 -11.1 -325.1C23.8 -305.9 47.7 -214.9 79.6 -167.1" fill="#8457eb"></path></g></svg>