<?xml version="1.0" standalone="no"?>
<!DOCTYPE svg PUBLIC "-//W3C//DTD SVG 20010904//EN"
 "http://www.w3.org/TR/2001/REC-SVG-20010904/DTD/svg10.dtd">
<svg version="1.0" xmlns="http://www.w3.org/2000/svg"
 width="512.000000pt" height="512.000000pt" viewBox="0 0 512.000000 512.000000"
 preserveAspectRatio="xMidYMid meet">
<metadata>
Created by potrace 1.14, written by Peter Selinger 2001-2017
</metadata>
<g transform="translate(0.000000,512.000000) scale(0.100000,-0.100000)"
fill="#000000" stroke="none">
<path d="M3780 4641 c-78 -25 -180 -77 -180 -93 0 -5 -5 -8 -10 -8 -6 0 -23
-12 -37 -27 -27 -29 -107 -134 -109 -143 -1 -5 -16 -45 -31 -80 -8 -20 -14
-42 -15 -57 -1 -7 -4 -13 -8 -13 -3 0 -6 -10 -7 -22 -1 -13 -4 -36 -8 -53 -4
-16 -8 -40 -9 -52 -3 -33 -31 -59 -131 -118 -64 -37 -96 -50 -109 -45 -11 4
-40 1 -65 -7 -24 -7 -53 -13 -63 -13 -11 0 -26 -6 -34 -14 -7 -8 -18 -16 -24
-18 -5 -1 -11 -12 -13 -23 -1 -11 -6 -25 -10 -31 -9 -15 -6 -84 5 -90 4 -3 6
-9 4 -13 -3 -4 -1 -24 3 -44 6 -24 5 -38 -3 -41 -10 -4 19 -10 37 -7 11 2 9
-17 -3 -24 -5 -3 -10 -2 -10 4 0 5 -8 8 -17 6 -10 -2 -26 -4 -36 -4 -10 -1
-16 -5 -13 -10 3 -5 -1 -14 -8 -20 -18 -15 -24 -5 -22 36 0 17 -1 31 -4 30 -3
-1 -6 3 -8 8 -2 6 -9 17 -17 25 -7 8 -16 34 -20 57 -7 45 -17 56 -50 59 -36 3
-60 -13 -63 -40 -1 -15 -11 -47 -23 -73 -11 -25 -19 -58 -17 -73 5 -36 -15
-48 -70 -44 -73 5 -84 12 -78 46 6 41 -11 56 -75 63 -28 3 -58 10 -65 16 -17
14 -17 174 1 189 7 6 29 11 49 12 20 1 36 5 36 9 0 4 11 10 25 13 14 4 25 11
25 17 0 6 5 7 10 4 6 -3 13 2 17 12 4 10 10 20 14 23 28 19 43 253 25 380 -11
74 -36 136 -68 167 -18 18 -37 32 -43 33 -5 0 -26 5 -45 10 -19 5 -64 11 -100
14 -36 3 -74 8 -85 10 -78 15 -316 22 -365 11 -14 -4 -31 -7 -38 -9 -8 -1 -18
-9 -23 -17 -5 -8 -9 -10 -9 -5 0 17 -41 -44 -43 -64 -1 -11 -4 -20 -8 -20 -4
0 -7 -90 -7 -201 0 -182 2 -205 21 -252 23 -55 41 -80 51 -70 3 4 6 2 6 -4 0
-6 31 -19 69 -29 52 -13 71 -23 77 -38 11 -33 12 -160 1 -173 -6 -9 -5 -13 3
-13 19 0 -32 -38 -55 -41 -66 -9 -154 51 -189 129 -11 23 -26 42 -35 43 -110
6 -113 6 -132 -14 -10 -12 -19 -29 -19 -39 0 -51 -54 -106 -100 -101 -47 4
-77 -7 -89 -35 -9 -18 -9 -28 -2 -30 6 -2 11 -11 11 -20 0 -15 2 -15 10 -2 5
8 10 11 10 7 0 -4 10 -2 23 5 12 6 31 13 41 15 11 2 27 10 36 18 21 19 28 19
46 1 9 -10 10 -17 4 -21 -6 -4 -8 -10 -5 -15 7 -12 -13 -23 -48 -26 -16 -1
-33 -6 -39 -12 -7 -7 -18 -6 -35 3 -27 14 -63 9 -63 -10 0 -6 -12 -12 -27 -13
-59 -2 -166 -13 -174 -18 -4 -2 -36 -7 -71 -11 -35 -3 -66 -10 -69 -16 -4 -5
-11 -7 -16 -4 -5 3 -17 -3 -26 -14 -20 -23 -22 -33 -4 -23 8 5 8 2 -2 -9 -11
-14 -11 -17 0 -17 9 0 10 -3 4 -8 -15 -11 -17 -32 -3 -32 9 0 8 -3 -2 -10 -8
-5 -16 -21 -18 -37 -4 -38 -10 -314 -11 -559 l-1 -200 -62 -19 c-73 -22 -96
-44 -122 -116 -21 -58 -22 -117 -4 -194 10 -39 24 -61 66 -103 36 -36 58 -50
65 -44 13 10 44 8 55 -3 4 -4 7 -151 8 -328 0 -177 3 -353 7 -392 5 -38 8 -76
9 -82 1 -7 7 -13 14 -13 7 0 18 -8 23 -18 6 -9 11 -12 11 -7 0 6 4 5 8 -1 4
-7 27 -14 51 -18 24 -3 50 -11 57 -17 7 -6 17 -8 23 -5 5 3 11 2 13 -3 1 -5
21 -10 43 -12 22 -1 51 -8 65 -14 14 -7 31 -10 38 -8 6 3 12 0 12 -6 0 -6 11
-11 25 -11 13 0 48 -9 77 -19 29 -11 80 -21 113 -22 33 -1 69 -7 80 -12 11 -6
44 -12 73 -13 29 -2 78 -10 109 -18 31 -8 61 -12 66 -9 6 3 7 1 3 -5 -3 -6 2
-13 11 -15 34 -10 98 -21 115 -20 10 0 15 -4 11 -10 -4 -6 0 -8 10 -4 9 3 17
2 19 -4 3 -9 21 -13 122 -24 21 -3 42 -8 45 -11 3 -4 -7 -4 -22 -2 -16 3 -25
2 -20 -2 4 -5 24 -10 43 -11 19 -2 40 -7 47 -12 7 -5 17 -6 23 -2 5 3 10 2 10
-4 0 -12 77 -34 90 -26 6 3 10 1 10 -4 0 -6 14 -11 30 -11 17 0 30 -4 30 -9 0
-7 54 -20 103 -24 9 -1 17 -5 17 -10 0 -4 5 -5 10 -2 6 3 10 2 10 -4 0 -13
106 -34 136 -27 14 4 24 2 24 -4 0 -6 -5 -8 -12 -4 -6 4 -8 3 -4 -4 6 -11 36
-19 95 -27 19 -2 37 -8 40 -13 8 -12 106 -35 123 -30 7 3 18 -1 23 -8 6 -7 35
-19 65 -28 30 -8 80 -22 110 -31 30 -8 65 -16 78 -17 12 -1 22 -6 22 -10 0 -4
5 -8 11 -8 5 0 7 5 3 12 -5 7 -3 8 7 2 19 -12 89 -15 89 -3 0 5 7 9 15 9 9 0
18 6 21 14 3 8 22 17 42 22 20 4 42 8 47 10 19 4 70 13 115 19 25 3 70 10 100
15 30 5 84 12 120 15 36 3 72 8 80 10 15 5 133 23 200 31 19 3 74 11 123 20
87 15 163 13 223 -5 22 -6 36 -5 44 2 10 9 11 9 5 -2 -6 -10 -2 -12 16 -6 53
14 68 28 74 66 16 92 -8 179 -50 186 -23 3 -73 13 -115 23 -25 5 -70 12 -100
16 -30 4 -62 10 -70 14 -22 11 -95 24 -182 31 -21 2 -38 7 -38 11 0 4 -8 8
-17 8 -18 1 -64 30 -47 30 5 0 3 4 -4 9 -10 6 -15 37 -17 100 -4 98 -14 124
-49 119 -30 -4 -46 9 -46 37 0 33 -42 59 -99 61 -25 1 -52 3 -58 3 -7 1 -15
12 -19 26 -4 14 -9 24 -12 21 -3 -3 -11 3 -19 13 -8 12 -22 18 -38 16 -20 -2
-29 5 -41 32 -14 29 -19 32 -33 21 -9 -7 -19 -17 -23 -23 -5 -6 -8 -5 -8 4 0
7 -6 11 -13 8 -7 -3 -28 7 -46 22 -29 24 -34 34 -36 82 -4 53 9 92 31 96 7 1
12 -14 12 -38 1 -53 10 -79 28 -79 8 0 13 4 9 9 -3 5 -1 12 4 15 5 4 8 -2 6
-11 -2 -10 -4 -18 -5 -18 -1 0 -2 -14 -3 -31 -2 -25 2 -31 18 -30 24 2 25 40
2 86 -8 16 -21 53 -28 82 -7 29 -17 56 -23 59 -12 9 34 55 61 62 14 3 38 -5
66 -23 129 -81 146 -88 276 -97 90 -6 174 9 241 44 56 29 173 130 165 143 -3
5 -1 10 3 12 34 13 106 188 120 292 45 338 -108 662 -353 746 -75 26 -247 21
-303 -9 -11 -6 -22 -7 -26 -4 -3 3 -6 2 -6 -4 0 -6 -11 -14 -25 -17 -13 -3
-48 -25 -77 -49 -52 -41 -98 -52 -98 -23 0 20 -40 51 -61 48 -15 -3 -19 3 -19
25 0 32 -34 82 -44 65 -4 -6 -13 -9 -20 -6 -9 4 -21 -8 -31 -30 -18 -37 -29
-44 -40 -26 -4 6 -10 8 -14 5 -5 -2 -17 5 -27 17 -11 12 -14 19 -9 16 7 -4 10
61 8 198 -2 221 -7 246 -56 273 -15 9 -34 29 -42 44 -8 15 -10 25 -5 22 6 -4
10 -1 10 4 0 6 -5 11 -11 11 -8 0 -7 6 2 17 12 15 12 16 -4 10 -10 -4 -16 -3
-12 3 8 12 187 4 215 -10 3 -1 14 -4 25 -5 11 -1 25 -3 31 -3 10 -2 58 -79 59
-94 0 -3 21 -35 47 -70 142 -194 282 -264 518 -262 95 1 140 14 217 61 70 43
105 73 148 127 17 20 36 44 44 52 19 21 75 158 92 224 9 36 14 106 13 200 0
119 -5 160 -24 230 -54 197 -138 329 -280 440 -55 43 -64 47 -155 82 -71 28
-222 32 -295 9z m-1745 -175 c17 -3 30 -5 30 -6 0 -4 49 -10 120 -15 44 -2 80
-5 80 -5 0 -1 16 -3 35 -5 83 -9 100 -15 117 -48 9 -18 17 -43 18 -57 1 -14 4
-30 7 -36 4 -5 6 -59 4 -119 -2 -136 -20 -184 -70 -187 -106 -5 -396 21 -449
41 -40 16 -59 95 -59 250 0 197 10 209 167 187z m686 -844 c-10 -3 -11 -6 -1
-12 17 -10 4 -30 -20 -30 -14 0 -17 5 -12 23 6 26 22 38 36 30 6 -4 5 -8 -3
-11z m-1366 -250 c18 -5 36 -20 45 -38 8 -16 17 -31 20 -34 5 -4 6 -879 2
-966 -1 -20 -7 -31 -17 -31 -15 0 -17 19 -18 165 0 12 -4 22 -9 22 -5 0 -8 6
-6 13 6 24 -42 113 -81 151 -38 37 -42 39 -110 40 l-71 1 -49 -51 c-75 -81
-82 -65 -81 186 1 212 8 238 53 196 15 -14 27 -21 27 -16 0 5 7 7 15 4 8 -4
23 0 32 7 14 12 16 12 8 0 -5 -8 9 -2 31 14 39 28 70 76 79 123 6 32 -10 70
-46 106 -29 29 -34 31 -105 30 -41 -1 -74 1 -74 5 1 3 11 18 23 34 16 19 37
30 68 35 64 12 229 14 264 4z m1770 -35 c18 -43 27 -145 13 -153 -7 -4 -6 -9
1 -14 15 -9 6 -32 -19 -48 -18 -11 -24 -9 -45 14 -14 15 -25 21 -25 14 0 -9
-4 -9 -12 -2 -7 5 -23 8 -34 6 -25 -4 -74 37 -74 62 0 10 -5 14 -14 11 -10 -4
-12 0 -9 14 3 10 0 19 -6 19 -6 0 -11 -5 -11 -11 0 -8 -5 -8 -15 1 -11 9 -15
9 -15 1 0 -7 -4 -9 -10 -6 -5 3 -10 1 -10 -5 0 -7 -6 -5 -15 4 -8 8 -15 21
-15 29 0 9 -6 18 -12 21 -7 3 1 2 17 -1 17 -3 33 -11 37 -17 5 -8 8 -7 8 2 0
6 7 12 15 12 8 0 15 -5 15 -11 0 -8 4 -9 13 0 8 6 17 8 21 4 4 -4 4 1 0 11 -5
14 -4 17 4 12 11 -7 17 6 13 27 -1 5 3 6 9 2 5 -3 10 -1 10 5 0 7 7 10 15 6 8
-3 15 -2 15 3 0 5 18 7 40 5 23 -2 40 0 40 6 0 6 9 10 21 10 13 0 25 -11 34
-33z m-2045 -137 c11 -11 20 -28 21 -37 1 -10 2 -27 3 -38 3 -43 -67 -63 -78
-22 -14 51 0 117 24 117 6 0 19 -9 30 -20z m331 -917 c-11 -5 -11 -7 0 -14 12
-7 14 -86 14 -440 0 -237 -3 -433 -8 -436 -4 -2 -5 -8 -2 -13 18 -29 -84 -37
-150 -11 -16 7 -47 15 -68 18 -45 6 -72 11 -72 13 0 1 -8 3 -17 5 -71 14 -103
37 -116 85 -2 8 -5 144 -7 301 -3 237 -1 290 11 305 13 18 15 17 41 -13 26
-30 103 -72 103 -56 0 4 5 2 12 -5 22 -22 110 -15 149 13 45 30 92 107 94 155
1 20 5 42 10 50 5 8 4 11 -2 7 -5 -3 -9 4 -7 16 3 29 2 27 17 26 8 0 8 -2 -2
-6z m1293 -281 c3 -5 -1 -9 -9 -9 -8 0 -12 4 -9 9 3 4 7 8 9 8 2 0 6 -4 9 -8z
m-967 -114 c-2 -18 -4 -4 -4 32 0 36 2 50 4 33 2 -18 2 -48 0 -65z m998 72
c-3 -5 -12 -10 -18 -10 -7 0 -6 4 3 10 19 12 23 12 15 0z m-6 -25 c6 3 25 -9
43 -28 35 -36 63 -51 88 -48 11 1 11 -1 -2 -9 -10 -6 -18 -15 -18 -20 0 -5 8
-7 18 -3 9 3 14 3 11 -1 -10 -11 -50 -16 -44 -5 7 11 3 11 -19 3 -9 -3 -13
-10 -10 -15 3 -5 -7 -4 -23 2 -15 6 -28 11 -29 12 0 1 -9 -4 -18 -12 -15 -12
-17 -12 -14 0 2 8 -3 13 -12 11 -12 -3 -12 -1 -3 9 9 9 8 15 -3 26 -10 11 -12
19 -5 27 7 9 7 17 -2 26 -8 9 -9 11 0 6 6 -3 14 -2 18 4 3 5 1 10 -4 10 -6 0
-11 5 -11 11 0 8 4 8 15 -1 8 -6 19 -9 24 -5z m634 -163 c-15 -25 -29 -24 -41
2 -9 21 -8 28 5 41 14 15 17 14 31 -6 10 -15 12 -26 5 -37z m-1527 -62 c27
-14 51 -27 54 -30 6 -6 50 -31 124 -70 l49 -27 2 -59 c2 -62 17 -99 50 -124
24 -18 45 -22 45 -9 0 6 4 8 9 5 10 -6 31 17 50 56 8 15 19 29 26 32 16 6 134
-53 164 -82 l24 -24 -27 -22 c-23 -17 -29 -33 -35 -82 -4 -34 -4 -73 0 -88 9
-33 -14 -48 -51 -33 -14 5 -32 11 -40 12 -8 1 -42 8 -75 15 -33 7 -64 13 -70
14 -5 1 -16 5 -23 10 -7 4 -28 10 -45 13 -18 3 -40 9 -49 14 -10 5 -18 7 -18
3 0 -3 -7 -1 -15 6 -8 6 -19 9 -25 5 -5 -3 -10 -2 -10 2 0 5 -10 10 -22 10
-55 4 -78 9 -78 16 0 5 -4 5 -10 2 -5 -3 -10 -1 -10 4 0 6 -5 11 -11 11 -5 0
-7 -5 -3 -12 5 -7 3 -8 -7 -2 -20 12 -39 14 -39 3 0 -6 -4 -8 -9 -5 -5 4 -11
0 -14 -6 -2 -7 -8 -9 -13 -5 -10 10 -18 423 -9 485 l6 42 28 -28 c16 -15 50
-39 77 -52z m464 65 c7 -8 9 -15 4 -15 -13 -1 28 -23 46 -26 32 -5 60 -17 60
-26 0 -5 5 -6 10 -3 6 4 9 3 8 -2 -5 -16 24 -73 35 -66 5 3 8 2 5 -3 -3 -5 -1
-20 5 -34 5 -14 11 -31 13 -39 1 -8 7 -17 13 -20 6 -4 6 -12 2 -20 -21 -33
-150 6 -268 82 -24 15 -45 27 -48 27 -3 0 -19 12 -36 28 -17 15 -35 26 -40 25
-5 -2 -13 6 -19 17 -8 15 -8 20 1 18 6 -2 15 7 20 20 6 15 5 21 -1 17 -6 -3
-10 -2 -10 4 0 14 31 22 60 15 14 -3 31 -6 38 -6 6 -1 12 -6 12 -12 0 -6 4 -5
9 2 4 8 12 14 16 14 4 0 11 -6 16 -14 7 -10 12 -9 26 6 17 19 17 19 0 7 -15
-12 -17 -12 -11 3 8 20 18 20 34 1z m706 6 c-5 -7 111 -6 220 2 71 6 72 6 72
-19 0 -14 5 -31 12 -37 10 -10 12 -8 7 6 -4 11 -3 16 3 12 6 -3 10 -17 10 -30
0 -15 10 -31 26 -41 14 -10 23 -23 20 -31 -3 -8 -2 -12 2 -10 4 3 13 -1 19 -8
10 -11 9 -15 -8 -20 -11 -4 -23 -4 -26 -1 -3 3 -14 1 -24 -4 -10 -6 -20 -6
-23 -1 -3 5 -20 7 -38 5 -18 -3 -62 -6 -98 -8 -36 -3 -65 -5 -65 -6 0 -4 -279
-22 -367 -24 -43 0 -78 -3 -78 -6 0 -3 -20 -5 -43 -5 -50 0 -83 20 -67 40 8
10 8 15 -1 21 -8 5 -9 3 -4 -6 5 -9 4 -11 -3 -6 -14 8 -3 35 22 56 19 15 21
37 4 43 -7 3 -3 4 10 4 16 -1 21 -6 17 -17 -3 -9 1 -8 10 4 8 11 15 14 15 7 0
-9 4 -8 15 3 9 8 22 13 30 10 8 -4 15 -1 15 5 0 6 7 8 17 4 12 -5 14 -3 8 7
-5 9 -4 11 3 6 7 -4 18 -4 24 0 7 5 19 9 28 10 109 10 146 16 148 24 2 5 9 7
17 4 7 -3 15 -2 18 3 3 4 17 9 31 9 14 1 24 -1 22 -5z m-434 -113 c-7 -7 -12
-8 -12 -2 0 14 12 26 19 19 2 -3 -1 -11 -7 -17z m-442 -9 c0 -6 -4 -7 -10 -4
-5 3 -10 11 -10 16 0 6 5 7 10 4 6 -3 10 -11 10 -16z m-1110 -290 c0 -6 -4 -7
-10 -4 -5 3 -10 11 -10 16 0 6 5 7 10 4 6 -3 10 -11 10 -16z m103 -36 c-7 -2
-21 -2 -30 0 -10 3 -4 5 12 5 17 0 24 -2 18 -5z m2353 -55 c3 -5 12 -4 20 3
11 9 14 9 14 0 0 -7 5 -9 13 -5 7 5 6 0 -3 -11 -9 -11 -10 -16 -2 -11 6 4 12
3 12 -3 0 -5 -5 -13 -10 -16 -6 -4 -8 -10 -5 -15 3 -5 -4 -11 -15 -15 -12 -4
-17 -11 -13 -18 4 -8 1 -7 -9 1 -11 8 -18 9 -22 3 -5 -7 -15 -7 -33 0 -23 8
-24 8 -13 -6 11 -13 10 -14 -6 -9 -10 4 -25 11 -31 17 -9 6 -13 6 -13 -1 0 -6
-7 -9 -15 -6 -8 4 -13 9 -10 13 2 4 -2 8 -10 8 -8 0 -12 -4 -9 -9 8 -13 -10
-10 -25 5 -11 10 -13 10 -7 0 4 -7 2 -13 -3 -13 -6 0 -11 6 -12 13 0 8 -2 8
-6 -2 -5 -11 -7 -11 -14 0 -8 12 -11 11 -19 -1 -11 -17 -13 -10 -4 14 3 9 10
13 15 10 5 -3 9 1 9 9 0 17 44 42 58 33 6 -3 14 -1 18 5 4 8 3 9 -4 5 -7 -4
-12 -2 -12 3 0 14 17 14 25 1 4 -7 11 -8 18 -2 24 20 111 20 123 0z m-1616
-113 c0 -9 7 -18 15 -21 8 -4 15 -10 15 -16 0 -5 -5 -6 -12 -2 -6 4 -8 3 -5
-3 3 -5 0 -10 -8 -10 -8 0 -12 4 -9 9 5 7 -10 12 -29 9 -5 -1 -6 3 -3 8 4 5 0
12 -6 14 -10 4 -9 8 2 16 22 15 40 13 40 -4z m133 -2 c-20 -8 -16 -33 5 -27
14 5 14 4 3 -4 -13 -9 -13 -13 0 -28 8 -10 9 -15 3 -11 -7 4 -14 1 -17 -7 -3
-8 -14 -13 -24 -11 -10 2 -24 4 -31 4 -7 1 -11 5 -8 10 4 5 -3 7 -14 4 -18 -5
-20 -1 -16 28 3 32 6 34 39 34 19 0 39 3 43 8 4 4 12 7 18 6 6 0 5 -3 -1 -6z
m117 -78 c-7 -8 -17 -12 -23 -8 -6 3 -7 1 -3 -5 5 -9 12 -8 26 1 11 6 20 15
20 19 0 5 5 8 10 8 6 0 10 -7 10 -15 0 -9 10 -15 26 -15 14 0 23 4 20 9 -4 5
2 8 11 6 10 -2 18 -4 18 -5 0 -1 13 -4 29 -6 30 -5 59 -27 49 -38 -4 -3 4 -6
16 -6 14 0 21 -5 18 -12 -2 -7 0 -21 4 -30 6 -11 5 -19 -3 -24 -7 -4 -8 -3 -4
5 8 13 -3 18 -62 25 -24 3 -48 9 -54 12 -7 5 -8 2 -3 -5 6 -10 3 -11 -12 -2
-11 6 -23 7 -27 3 -4 -3 -4 1 0 11 5 13 1 17 -16 17 -12 0 -31 5 -42 11 -12 6
-23 7 -27 2 -3 -5 -14 -1 -23 8 -15 16 -15 18 0 25 9 4 21 6 25 5 4 0 10 6 14
14 3 9 8 14 11 11 3 -3 -1 -12 -8 -21z m295 -68 c8 2 19 -5 25 -17 8 -15 9
-20 1 -16 -6 4 -14 0 -17 -8 -3 -9 -10 -13 -16 -10 -5 3 -1 15 9 27 l18 21
-26 -20 c-15 -10 -25 -23 -22 -29 2 -5 -5 1 -17 15 -20 23 -21 25 -4 37 11 8
22 9 27 4 5 -5 15 -7 22 -4z m142 -40 c6 -4 15 -3 18 3 4 6 14 8 23 6 10 -3
34 -8 54 -10 21 -3 59 -12 85 -21 26 -9 68 -20 93 -25 25 -5 54 -11 65 -14 38
-8 320 -86 335 -93 8 -3 18 -5 23 -5 4 1 7 -4 8 -10 4 -50 7 -66 13 -76 4 -7
-2 -13 -16 -17 -27 -6 -41 -3 -90 18 -20 9 -51 17 -70 19 -18 1 -41 5 -50 10
-10 5 -44 13 -75 19 -32 6 -63 15 -69 20 -7 6 -20 12 -30 14 -11 2 -36 9 -56
13 -25 7 -40 6 -48 -2 -8 -8 -11 -7 -8 3 2 10 -16 19 -57 30 -33 9 -62 19 -64
24 -1 5 -13 0 -24 -10 -17 -14 -19 -15 -9 -1 11 14 10 17 -10 24 -13 4 -26 8
-30 9 -3 0 -9 3 -13 7 -4 4 -13 4 -21 1 -8 -3 -14 0 -14 6 0 6 -10 11 -22 12
-13 0 -17 3 -11 6 10 3 10 10 1 26 -10 20 -10 21 6 8 9 -8 16 -10 15 -5 -1 5
-1 12 0 15 1 8 33 5 48 -4z"/>
<path d="M1266 1772 c-24 -5 -38 -19 -54 -55 -25 -57 -10 -110 36 -129 44 -18
56 -18 81 1 21 16 24 27 25 79 1 79 -30 116 -88 104z"/>
<path d="M2730 1926 c0 -2 8 -10 18 -17 15 -13 16 -12 3 4 -13 16 -21 21 -21
13z"/>
<path d="M2704 1908 c-4 -7 -4 -10 1 -6 4 4 15 2 24 -5 14 -11 14 -10 2 6 -16
20 -18 21 -27 5z"/>
<path d="M2710 1880 c0 -6 -6 -8 -12 -4 -7 4 -4 -3 7 -15 11 -13 19 -25 18
-27 -2 -2 -1 -4 2 -4 3 0 10 0 15 0 6 0 10 5 10 10 0 6 -6 9 -12 8 -7 -2 -12
5 -10 14 1 9 -2 19 -8 23 -5 3 -10 1 -10 -5z"/>
<path d="M2754 1875 c3 -23 12 -26 13 -5 1 11 -2 20 -7 20 -4 0 -7 -7 -6 -15z"/>
<path d="M2772 1834 c-7 -8 -8 -14 -3 -14 10 0 25 19 20 25 -2 1 -10 -3 -17
-11z"/>
<path d="M1830 1161 c0 -6 4 -12 8 -15 5 -3 9 1 9 9 0 8 -4 15 -9 15 -4 0 -8
-4 -8 -9z"/>
<path d="M2370 999 c0 -5 5 -7 10 -4 6 3 10 8 10 11 0 2 -4 4 -10 4 -5 0 -10
-5 -10 -11z"/>
</g>
</svg>
